<?xml version="1.0" encoding="UTF-8" standalone="no"?>
<!DOCTYPE svg PUBLIC "-//W3C//DTD SVG 1.1//EN" "http://www.w3.org/Graphics/SVG/1.1/DTD/svg11.dtd">
<svg version="1.1" xmlns="http://www.w3.org/2000/svg" xmlns:xlink="http://www.w3.org/1999/xlink" preserveAspectRatio="xMidYMid meet" viewBox="0 0 640 640" width="640" height="640"><defs><path d="M383.67 106.45C453.82 136.11 501.06 205.32 501.06 283.66C501.06 294.47 501.06 380.95 501.06 391.76C532.5 394.17 557.36 420.5 557.36 452.58C557.36 486.25 529.99 513.58 496.27 513.58C458.75 513.58 158.61 513.58 121.09 513.58C87.36 513.58 60 486.28 60 452.58C60 420.5 84.82 394.17 116.3 391.76C116.3 380.95 116.3 294.47 116.3 283.66C116.3 205.3 163.54 136.11 233.69 106.45C235.54 66.68 268.45 34.98 308.68 34.98C348.94 34.98 381.83 66.69 383.67 106.45ZM163.23 283.66C163.23 294.92 163.23 385 163.23 396.26C163.23 419.57 144.31 438.5 121.02 438.5C113.25 438.5 106.92 444.83 106.92 452.58C106.92 460.35 113.25 466.66 121.09 466.66C158.61 466.66 458.75 466.66 496.27 466.66C504.09 466.66 510.44 460.32 510.44 452.58C510.44 444.84 504.09 438.5 496.34 438.5C473.01 438.5 454.13 419.63 454.13 396.26C454.13 385 454.13 294.92 454.13 283.66C454.13 219.96 412.83 164.25 353.13 145.12C352.05 144.77 346.61 143.03 336.83 139.89C336.83 121.94 336.83 111.97 336.83 109.98C336.83 94.5 324.22 81.9 308.68 81.9C293.16 81.9 280.53 94.51 280.53 109.98C280.53 111.97 280.53 121.94 280.53 139.89L264.23 145.12C196.89 195 163.23 241.18 163.23 283.66ZM266.45 513.58C266.45 536.9 285.36 555.81 308.68 555.81C332 555.81 350.91 536.9 350.91 513.58C355.6 513.58 393.14 513.58 397.83 513.58C397.83 562.81 357.92 602.73 308.68 602.73C259.44 602.73 219.53 562.81 219.53 513.58C228.91 513.58 261.76 513.58 266.45 513.58Z" id="a2wTlAEUS0"></path></defs><g><g><g><use xlink:href="#a2wTlAEUS0" opacity="1" fill="#ffffff" fill-opacity="1"></use><g><use xlink:href="#a2wTlAEUS0" opacity="1" fill-opacity="0" stroke="#000000" stroke-width="1" stroke-opacity="0"></use></g></g></g></g></svg>