<?xml version="1.0" encoding="UTF-8" standalone="no"?>
<!DOCTYPE svg PUBLIC "-//W3C//DTD SVG 1.1//EN" "http://www.w3.org/Graphics/SVG/1.1/DTD/svg11.dtd">
<svg version="1.1" xmlns="http://www.w3.org/2000/svg" xmlns:xlink="http://www.w3.org/1999/xlink" preserveAspectRatio="xMidYMid meet" viewBox="0 0 640 640" width="640" height="640"><defs><path d="M555.1 245.95C556.13 240.32 554.08 234.18 548.45 230.08C536.36 219.94 439.7 138.84 427.62 128.7C420.96 123.07 410.72 120 399.97 120C393.82 120 388.19 121.02 382.56 122.56C354.45 132.44 129.58 211.49 101.47 221.38C91.74 224.96 85.6 230.59 84.58 237.76C83.55 243.39 86.11 249.54 91.23 253.63C103.32 263.77 199.98 344.87 212.06 355.01C218.72 360.64 228.96 363.71 239.71 363.71C245.86 363.71 251.49 362.69 257.12 361.15C285.23 351.32 510.1 272.68 538.21 262.85C547.42 259.26 554.08 253.12 555.1 245.95M563.3 270.02C563.3 263.87 563.3 260.46 563.3 259.78C558.69 266.43 552.03 271.55 542.82 275.14C514.71 285.02 289.84 364.07 261.73 373.95C255.07 376.51 247.39 377.54 239.71 377.54C225.38 377.54 212.06 373.44 203.36 365.76C191.28 355.62 94.61 274.52 82.53 264.38C79.97 262.34 77.92 260.29 76.38 257.73C76.38 258.14 76.38 261.41 76.38 261.82C76.38 261.82 76.38 261.82 76.38 261.82C76.38 262.34 76.38 266.43 76.38 266.94C76.38 271.04 78.43 275.65 83.04 279.23C95.12 289.37 191.79 370.47 203.87 380.61C216.67 391.36 242.78 394.43 262.75 387.26C290.86 377.43 515.73 298.79 543.84 288.96C556.13 284.86 562.78 277.7 563.3 270.02M563.3 296.64C563.3 287.12 563.3 281.83 563.3 280.77C562.78 287.94 556.13 295.62 543.84 299.71C515.73 309.54 290.86 388.19 262.75 398.02C242.78 405.18 216.67 402.11 203.87 391.36C191.84 381.22 95.58 300.12 83.55 289.98C78.94 285.89 76.9 281.79 76.9 277.7C76.9 276.71 76.9 271.76 76.9 262.85C76.9 278.21 76.9 286.74 76.9 288.45C76.9 288.45 76.9 288.45 76.9 288.45C76.9 288.96 76.9 293.06 76.9 293.57C76.9 297.66 78.94 302.27 83.55 305.86C95.64 315.99 192.3 397.09 204.38 407.23C217.18 417.98 243.3 421.06 263.26 413.89C291.37 404.06 516.24 325.41 544.35 315.58C556.13 311.49 563.3 303.81 563.3 296.64M563.3 322.75L563.3 326.34C563.3 314.36 563.3 307.7 563.3 306.37C563.3 314.05 556.13 321.22 543.84 325.31C515.73 335.24 290.86 414.71 262.75 424.64C242.78 431.81 216.67 428.74 203.87 417.98C191.84 407.85 95.58 326.75 83.55 316.61C78.94 312.51 76.9 308.42 76.9 304.32C76.9 303.6 76.9 300.02 76.9 293.57C76.9 306.47 76.9 313.64 76.9 315.07C76.9 315.07 76.9 315.07 76.9 315.07C76.9 315.58 76.9 319.68 76.9 320.19C76.9 324.29 78.94 328.9 83.55 332.48C95.64 342.62 192.3 423.72 204.38 433.86C217.18 444.61 243.3 447.68 263.26 440.51C291.37 430.68 516.24 352.04 544.35 342.21C556.64 337.6 563.3 330.43 563.3 322.75M563.3 349.38L563.3 357.57C563.3 342.82 563.3 334.63 563.3 332.99C563.3 340.67 556.13 347.84 543.84 352.45C515.73 362.28 290.86 440.92 262.75 450.75C242.78 457.92 216.67 454.85 203.87 444.1C191.84 433.96 95.58 352.86 83.55 342.72C78.94 339.14 76.9 334.53 76.9 330.43C76.9 330.02 76.9 327.97 76.9 324.29L76.9 342.72C76.9 344.87 76.9 346.07 76.9 346.3C76.9 350.4 78.94 355.01 83.55 358.59C95.64 368.73 192.3 449.83 204.38 459.97C217.18 470.72 243.3 473.79 263.26 466.62C291.32 456.79 515.78 378.15 543.84 368.32C556.64 364.22 563.3 357.06 563.3 349.38M563.3 371.39C563.3 364.33 563.3 360.4 563.3 359.62C563.3 367.3 556.64 374.46 543.84 379.07C515.73 388.9 290.86 467.55 262.75 477.38C242.78 484.54 216.67 481.47 203.87 470.72C191.84 460.58 95.58 379.48 83.55 369.34C78.94 365.25 76.9 361.15 76.9 357.06C76.9 356.92 76.9 356.24 76.9 355.01C76.9 363.3 76.9 367.91 76.9 368.83C76.9 372.93 78.94 377.54 83.55 381.12C95.64 391.26 192.3 472.36 204.38 482.5C217.18 493.25 243.3 496.32 263.26 489.15C291.37 479.32 516.24 400.68 544.35 390.85C556.64 386.24 563.3 378.56 563.3 371.39" id="bz9eODDDz"></path></defs><g><g><g><use xlink:href="#bz9eODDDz" opacity="1" fill="#ffffff" fill-opacity="1"></use><g><use xlink:href="#bz9eODDDz" opacity="1" fill-opacity="0" stroke="#000000" stroke-width="1" stroke-opacity="0"></use></g></g></g></g></svg>