<?xml version="1.0" encoding="UTF-8" standalone="no"?>
<!DOCTYPE svg PUBLIC "-//W3C//DTD SVG 1.1//EN" "http://www.w3.org/Graphics/SVG/1.1/DTD/svg11.dtd">
<svg version="1.1" xmlns="http://www.w3.org/2000/svg" xmlns:xlink="http://www.w3.org/1999/xlink" preserveAspectRatio="xMidYMid meet" viewBox="0 0 640 640" width="640" height="640"><defs><path d="M614.49 84.69C621.82 86 626.71 92.98 625.43 100.31C609.19 193.32 562.79 459.09 546.55 552.1C545.27 559.42 538.3 564.3 530.98 563C458.59 550.11 254.67 513.8 182.27 500.9C174.95 499.6 170.06 492.62 171.34 485.29C187.58 392.28 233.98 126.5 250.22 33.49C251.5 26.18 258.47 21.29 265.78 22.6C338.18 35.49 542.1 71.8 614.49 84.69Z" id="bAdgghxry"></path><path d="" id="e1C58m65oV"></path><path d="M247.88 57.74C194.01 59.11 160.35 59.97 146.88 60.32C135.44 60.61 126.28 69.91 126.17 81.35C125.24 173.59 122.55 439.35 121.59 533.98C121.55 538.71 125.36 542.58 130.09 542.6C169.45 542.78 267.85 543.23 425.29 543.95" id="a17etk2hRf"></path><path d="M126.83 89.02C75.86 99.74 44 106.45 31.25 109.13C20.02 111.49 12.64 122.28 14.5 133.61C29.44 224.61 72.49 486.78 87.81 580.14C88.56 584.71 93.05 587.69 97.55 586.6C121.41 580.84 181.06 566.46 276.49 543.44" id="a7V60FVm7T"></path></defs><g><g><g><use xlink:href="#bAdgghxry" opacity="1" fill="#000000" fill-opacity="0"></use><g><use xlink:href="#bAdgghxry" opacity="1" fill-opacity="0" stroke="#ffffff" stroke-width="32" stroke-opacity="1"></use></g></g><g><use xlink:href="#e1C58m65oV" opacity="1" fill="#000000" fill-opacity="0"></use><g><use xlink:href="#e1C58m65oV" opacity="1" fill-opacity="0" stroke="#000000" stroke-width="8" stroke-opacity="1"></use></g></g><g><use xlink:href="#a17etk2hRf" opacity="1" fill="#000000" fill-opacity="0"></use><g><use xlink:href="#a17etk2hRf" opacity="1" fill-opacity="0" stroke="#ffffff" stroke-width="32" stroke-opacity="1"></use></g></g><g><use xlink:href="#a7V60FVm7T" opacity="1" fill="#000000" fill-opacity="0"></use><g><use xlink:href="#a7V60FVm7T" opacity="1" fill-opacity="0" stroke="#ffffff" stroke-width="32" stroke-opacity="1"></use></g></g></g></g></svg>