<?xml version="1.0" encoding="UTF-8" standalone="no"?>
<!DOCTYPE svg PUBLIC "-//W3C//DTD SVG 1.1//EN" "http://www.w3.org/Graphics/SVG/1.1/DTD/svg11.dtd">
<svg version="1.1" xmlns="http://www.w3.org/2000/svg" xmlns:xlink="http://www.w3.org/1999/xlink" preserveAspectRatio="xMidYMid meet" viewBox="0 0 640 640" width="640" height="640"><defs><path d="M423.03 190.53C423.03 247.22 377.24 293.02 320.55 293.02C262.76 293.02 216.97 247.22 216.97 190.53C216.97 132.74 262.76 86.95 320.55 86.95C377.24 86.95 423.03 132.74 423.03 190.53ZM238.77 190.53C238.77 235.23 274.75 271.21 320.55 271.21C365.25 271.21 401.23 235.23 401.23 190.53C401.23 144.74 365.25 108.76 320.55 108.76C274.75 108.76 238.77 144.74 238.77 190.53Z" id="awE3ZskFc"></path><path d="M175.54 459.83C170.09 459.83 165.72 454.38 166.81 447.84C175.54 370.43 240.95 310.46 320.55 310.46C399.05 310.46 465.55 370.43 474.28 447.84C474.28 454.38 469.91 459.83 464.46 459.83C457.92 460.92 452.47 456.56 452.47 451.11C444.84 383.51 388.14 332.27 320.55 332.27C252.95 332.27 195.16 383.51 187.53 451.11C187.53 456.56 182.08 460.92 175.54 459.83Z" id="aUllrh26"></path><path d="M602.93 254.86C602.93 299.56 566.95 335.54 522.25 335.54C478.64 335.54 442.66 299.56 442.66 254.86C442.66 211.24 478.64 175.26 522.25 175.26C566.95 175.26 602.93 211.24 602.93 254.86ZM464.46 254.86C464.46 287.56 490.63 313.73 522.25 313.73C554.96 313.73 581.12 287.56 581.12 254.86C581.12 223.24 554.96 197.07 522.25 197.07C490.63 197.07 464.46 223.24 464.46 254.86Z" id="b4fndYqcV"></path><path d="M463.37 374.79C461.19 369.34 463.37 362.79 468.82 359.52C485.18 351.89 503.71 346.44 522.25 346.44C581.12 346.44 631.28 390.05 640 447.84C641.09 453.29 636.73 459.83 631.28 459.83C624.74 460.92 619.28 456.56 618.19 451.11C611.65 403.13 570.22 368.25 522.25 368.25C506.98 368.25 491.72 372.61 478.64 379.15C473.19 382.42 466.64 380.24 463.37 374.79Z" id="a2y45zbMFz"></path><path d="M197.34 254.86C197.34 299.56 161.36 335.54 117.75 335.54C73.05 335.54 37.07 299.56 37.07 254.86C37.07 211.24 73.05 175.26 117.75 175.26C161.36 175.26 197.34 211.24 197.34 254.86ZM58.88 254.86C58.88 287.56 85.04 313.73 117.75 313.73C149.37 313.73 175.54 287.56 175.54 254.86C175.54 223.24 149.37 197.07 117.75 197.07C85.04 197.07 58.88 223.24 58.88 254.86Z" id="b4FAI1DAUd"></path><path d="M9.81 459.83C3.27 459.83 -1.09 453.29 0 447.84C8.72 390.05 58.88 346.44 117.75 346.44C136.29 346.44 154.82 351.89 172.27 359.52C176.63 362.79 178.81 369.34 176.63 374.79C173.36 380.24 166.81 382.42 161.36 379.15C148.28 372.61 133.02 368.25 117.75 368.25C69.78 368.25 28.35 403.13 21.81 451.11C20.72 456.56 15.26 460.92 9.81 459.83Z" id="a1arIkz3mR"></path></defs><g><g><g><use xlink:href="#awE3ZskFc" opacity="1" fill="#ffffff" fill-opacity="1"></use><g><use xlink:href="#awE3ZskFc" opacity="1" fill-opacity="0" stroke="#000000" stroke-width="1" stroke-opacity="0"></use></g></g><g><use xlink:href="#aUllrh26" opacity="1" fill="#ffffff" fill-opacity="1"></use><g><use xlink:href="#aUllrh26" opacity="1" fill-opacity="0" stroke="#000000" stroke-width="1" stroke-opacity="0"></use></g></g><g><use xlink:href="#b4fndYqcV" opacity="1" fill="#ffffff" fill-opacity="1"></use><g><use xlink:href="#b4fndYqcV" opacity="1" fill-opacity="0" stroke="#000000" stroke-width="1" stroke-opacity="0"></use></g></g><g><use xlink:href="#a2y45zbMFz" opacity="1" fill="#ffffff" fill-opacity="1"></use><g><use xlink:href="#a2y45zbMFz" opacity="1" fill-opacity="0" stroke="#000000" stroke-width="1" stroke-opacity="0"></use></g></g><g><use xlink:href="#b4FAI1DAUd" opacity="1" fill="#ffffff" fill-opacity="1"></use><g><use xlink:href="#b4FAI1DAUd" opacity="1" fill-opacity="0" stroke="#000000" stroke-width="1" stroke-opacity="0"></use></g></g><g><use xlink:href="#a1arIkz3mR" opacity="1" fill="#ffffff" fill-opacity="1"></use><g><use xlink:href="#a1arIkz3mR" opacity="1" fill-opacity="0" stroke="#000000" stroke-width="1" stroke-opacity="0"></use></g></g></g></g></svg>