<?xml version="1.0" encoding="UTF-8" standalone="no"?>
<!DOCTYPE svg PUBLIC "-//W3C//DTD SVG 1.1//EN" "http://www.w3.org/Graphics/SVG/1.1/DTD/svg11.dtd">
<svg version="1.1" xmlns="http://www.w3.org/2000/svg" xmlns:xlink="http://www.w3.org/1999/xlink" preserveAspectRatio="xMidYMid meet" viewBox="0 0 640 640" width="640" height="640"><defs><path d="M423.03 190.53C423.03 247.22 377.24 293.02 320.55 293.02C262.76 293.02 216.97 247.22 216.97 190.53C216.97 132.74 262.76 86.95 320.55 86.95C377.24 86.95 423.03 132.74 423.03 190.53ZM238.77 190.53C238.77 235.23 274.75 271.21 320.55 271.21C365.25 271.21 401.23 235.23 401.23 190.53C401.23 144.74 365.25 108.76 320.55 108.76C274.75 108.76 238.77 144.74 238.77 190.53Z" id="a78GNu4F8"></path><path d="M175.54 459.83C170.09 459.83 165.72 454.38 166.81 447.84C175.54 370.43 240.95 310.46 320.55 310.46C399.05 310.46 465.55 370.43 474.28 447.84C474.28 454.38 469.91 459.83 464.46 459.83C457.92 460.92 452.47 456.56 452.47 451.11C444.84 383.51 388.14 332.27 320.55 332.27C252.95 332.27 195.16 383.51 187.53 451.11C187.53 456.56 182.08 460.92 175.54 459.83Z" id="hxByNNIxN"></path></defs><g><g><g><use xlink:href="#a78GNu4F8" opacity="1" fill="#ffffff" fill-opacity="1"></use><g><use xlink:href="#a78GNu4F8" opacity="1" fill-opacity="0" stroke="#000000" stroke-width="1" stroke-opacity="0"></use></g></g><g><use xlink:href="#hxByNNIxN" opacity="1" fill="#ffffff" fill-opacity="1"></use><g><use xlink:href="#hxByNNIxN" opacity="1" fill-opacity="0" stroke="#000000" stroke-width="1" stroke-opacity="0"></use></g></g></g></g></svg>