<?xml version="1.0" encoding="UTF-8" standalone="no"?>
<!DOCTYPE svg PUBLIC "-//W3C//DTD SVG 1.1//EN" "http://www.w3.org/Graphics/SVG/1.1/DTD/svg11.dtd">
<svg version="1.1" xmlns="http://www.w3.org/2000/svg" xmlns:xlink="http://www.w3.org/1999/xlink" preserveAspectRatio="xMidYMid meet" viewBox="0 0 640 640" width="640" height="640"><defs><path d="M519.58 293.53C524.49 293.53 528.46 297.5 528.46 302.4C528.46 364.07 528.46 540.21 528.46 601.88C528.46 606.78 524.49 610.75 519.58 610.75C437.56 610.75 200.37 610.75 118.35 610.75C113.45 610.75 109.48 606.78 109.48 601.88C109.48 540.21 109.48 364.07 109.48 302.4C109.48 297.5 113.45 293.53 118.35 293.53C200.37 293.53 437.56 293.53 519.58 293.53Z" id="agv2ND9DH"></path><path d="M498.87 35.87C517.63 43.82 523.92 71.49 517.74 118.88C512.96 155.55 482.29 183.34 445.32 184.48C419.01 185.29 383.26 186.4 351.72 187.37C335.65 187.87 325.61 170.13 334.32 156.61C346.81 137.22 353.9 126.21 363.93 110.62C385.29 77.45 416.41 51.71 453 36.96C469.54 30.28 484.83 29.92 498.87 35.87Z" id="aiLkhfwt4"></path><path d="M149.08 35.93C130.31 43.88 124.02 71.55 130.2 118.94C134.98 155.61 165.66 183.4 202.62 184.54C228.93 185.35 264.68 186.46 296.22 187.43C312.3 187.93 322.33 170.19 313.63 156.67C301.14 137.27 294.05 126.26 284.01 110.68C262.65 77.51 231.53 51.77 194.94 37.02C178.4 30.34 163.11 29.98 149.08 35.93Z" id="a2lFTcX2z3"></path><path d="M286.75 186.27L361.92 186.27L361.92 608.78L286.75 608.78L286.75 186.27Z" id="hvo7h3gHL"></path><path d="M563.25 185.56C564.91 185.56 566.25 186.9 566.25 188.56C566.25 209.38 566.25 268.85 566.25 289.67C566.25 291.33 564.91 292.67 563.25 292.67C466.15 292.67 177.83 292.67 80.73 292.67C79.07 292.67 77.73 291.33 77.73 289.67C77.73 268.85 77.73 209.38 77.73 188.56C77.73 186.9 79.07 185.56 80.73 185.56C177.83 185.56 466.15 185.56 563.25 185.56Z" id="c2PLwej64C"></path></defs><g><g><g><use xlink:href="#agv2ND9DH" opacity="1" fill="#e33172" fill-opacity="0"></use><g><use xlink:href="#agv2ND9DH" opacity="1" fill-opacity="0" stroke="#ffffff" stroke-width="32" stroke-opacity="1"></use></g></g><g><g><use xlink:href="#aiLkhfwt4" opacity="1" fill-opacity="0" stroke="#ffffff" stroke-width="32" stroke-opacity="1"></use></g></g><g><g><use xlink:href="#a2lFTcX2z3" opacity="1" fill-opacity="0" stroke="#ffffff" stroke-width="32" stroke-opacity="1"></use></g></g><g><use xlink:href="#hvo7h3gHL" opacity="1" fill="#ffffff" fill-opacity="0"></use><g><use xlink:href="#hvo7h3gHL" opacity="1" fill-opacity="0" stroke="#ffffff" stroke-width="32" stroke-opacity="1"></use></g></g><g><use xlink:href="#c2PLwej64C" opacity="1" fill="#e33172" fill-opacity="0"></use><g><use xlink:href="#c2PLwej64C" opacity="1" fill-opacity="0" stroke="#ffffff" stroke-width="32" stroke-opacity="1"></use></g></g></g></g></svg>